<svg width="430" height="932" viewBox="0 0 430 932" fill="none" xmlns="http://www.w3.org/2000/svg">
  <defs>
    <linearGradient id="bg" x1="0" y1="0" x2="430" y2="932" gradientUnits="userSpaceOnUse">
      <stop stop-color="#F7F2EC"/>
      <stop offset="1" stop-color="#F2EBE1"/>
    </linearGradient>
    <linearGradient id="path" x1="0" y1="0" x2="0" y2="1">
      <stop stop-color="#646556"/>
      <stop offset="0.5" stop-color="#BA9EA7"/>
      <stop offset="1" stop-color="#C1B1A1"/>
    </linearGradient>
    <filter id="shadow" x="-20%" y="-20%" width="140%" height="140%">
      <feDropShadow dx="0" dy="3" stdDeviation="6" flood-color="#2E2620" flood-opacity="0.08"/>
    </filter>
  </defs>

  <rect width="430" height="932" fill="url(#bg)"/>

  <ellipse cx="96" cy="88" rx="78" ry="42" fill="#EDE4D8" opacity="0.7"/>
  <ellipse cx="338" cy="178" rx="68" ry="32" fill="#F0E9DF" opacity="0.8"/>
  <ellipse cx="214" cy="738" rx="170" ry="120" fill="#EDE4D8" opacity="0.35"/>

  <text x="18" y="58" fill="#800000" font-size="44" font-weight="400" letter-spacing="0.3" font-family="Caprasimo, Georgia, serif">AHMA</text>
  <text x="333" y="54" fill="#2E2620" fill-opacity="0.35" font-size="12" letter-spacing="0.6" font-family="monospace">4 walks</text>

  <text x="14" y="112" fill="#2E2620" fill-opacity="0.8" font-size="15" font-family="Fraunces, Georgia, serif">Your journeys</text>

  <rect x="18" y="132" width="2" height="560" rx="1" fill="url(#path)"/>

  <circle cx="19" cy="154" r="5" fill="#646556" stroke="#646556" stroke-width="1.5"/>
  <g filter="url(#shadow)">
    <rect x="34" y="138" width="116" height="48" rx="10" fill="#F0E9DF" stroke="#2E2620" stroke-opacity="0.07"/>
  </g>
  <text x="43" y="157" fill="#2E2620" fill-opacity="0.8" font-size="10" font-family="Fraunces, Georgia, serif">Tuesday evening</text>
  <text x="43" y="175" fill="#646556" font-size="13.5" font-family="Fraunces, Georgia, serif">breathing · 8 min</text>

  <circle cx="19" cy="218" r="5" fill="#BA9EA7" stroke="#BA9EA7" stroke-width="1.5"/>
  <g filter="url(#shadow)">
    <rect x="34" y="202" width="132" height="48" rx="10" fill="#F0E9DF" stroke="#2E2620" stroke-opacity="0.07"/>
  </g>
  <text x="43" y="221" fill="#2E2620" fill-opacity="0.8" font-size="10" font-family="Fraunces, Georgia, serif">Sunday, heavy heart</text>
  <text x="43" y="239" fill="#646556" font-size="13.5" font-family="Fraunces, Georgia, serif">just talking · 22 min</text>

  <circle cx="19" cy="282" r="5" fill="#C1B1A1" stroke="#4A4038" stroke-opacity="0.18" stroke-width="1.5"/>
  <g filter="url(#shadow)">
    <rect x="34" y="266" width="124" height="48" rx="10" fill="#F0E9DF" stroke="#2E2620" stroke-opacity="0.07"/>
  </g>
  <text x="43" y="285" fill="#2E2620" fill-opacity="0.8" font-size="10" font-family="Fraunces, Georgia, serif">Thursday morning</text>
  <text x="43" y="303" fill="#646556" font-size="13.5" font-family="Fraunces, Georgia, serif">grounding · 5 min</text>

  <circle cx="19" cy="346" r="5" fill="#C1B1A1" stroke="#4A4038" stroke-opacity="0.18" stroke-width="1.5"/>
  <g filter="url(#shadow)">
    <rect x="34" y="330" width="108" height="48" rx="10" fill="#F0E9DF" stroke="#2E2620" stroke-opacity="0.07"/>
  </g>
  <text x="43" y="349" fill="#2E2620" fill-opacity="0.8" font-size="10" font-family="Fraunces, Georgia, serif">first walk</text>
  <text x="43" y="367" fill="#646556" font-size="13.5" font-family="Fraunces, Georgia, serif">introduced · hello</text>

  <rect x="0" y="820" width="430" height="112" fill="#F7F2EC" fill-opacity="0.55"/>
</svg>
